<svg id="Слой_1" data-name="Слой 1" xmlns="http://www.w3.org/2000/svg" viewBox="0 0 247.64 56.85"><defs><style>.cls-1{fill:#3f9ae1;}</style></defs><title>logo_KTM</title><path class="cls-1" d="M50.56,56.64c0,.1,0,.21,0,.31s0,.21,0,.31a5.82,5.82,0,0,1-.14.62,4.25,4.25,0,0,1-.23.6,3.31,3.31,0,0,1-.33.56,2.79,2.79,0,0,1-.45.48,2.7,2.7,0,0,1-.55.36,3,3,0,0,1-.62.22,3.8,3.8,0,0,1-.65.1h-.65a3.09,3.09,0,0,1-.65-.12,3,3,0,0,1-.61-.26,3.2,3.2,0,0,1-.54-.39,4.1,4.1,0,0,1-.82-1,5.2,5.2,0,0,1-.29-.59l-.12-.31-.05-.16,0-.08v-.08l.19.15-2.64,0h-.15l-.06-.14v-.08l0-.08L41,57a1.83,1.83,0,0,1-.05-.32,1.18,1.18,0,0,1,0-.36.85.85,0,0,1,.07-.19.76.76,0,0,1,.12-.17.77.77,0,0,1,.16-.13l0,0,0,0a1.19,1.19,0,0,0,.15-.18,2,2,0,0,0,.23-.45l0,.06V55l0-.13q0-.13.07-.26a3.05,3.05,0,0,1,.21-.49,2.42,2.42,0,0,1,.32-.45,2,2,0,0,1,.44-.37l0,0h0l5.31-1.58,2.65-.79.66-.2.33-.1.31-.1.62-.25L53.4,50q.61-.3,1.2-.63l.08,0,.08,0,.15-.09.31-.17.63-.32a25.56,25.56,0,0,1,2.59-1.11,23.26,23.26,0,0,1,2.71-.81,20.25,20.25,0,0,1,2.8-.45c.47,0,.95-.07,1.42-.07s1,0,1.43,0a15.92,15.92,0,0,1,2.83.46,15.28,15.28,0,0,1,2.7,1c.43.21.86.43,1.27.67l.61.38.3.2.15.1,0,0h0l0,0h0l0,0a3.71,3.71,0,0,0,1.06.51A7.83,7.83,0,0,0,77.1,50l.17,0,.17,0,.34,0,.68.09,1.37.16,1.37.14h.19l.08,0a1.47,1.47,0,0,1,.27.1,2.17,2.17,0,0,1,.4.26,3.58,3.58,0,0,1,.31.28l.26.28c.16.19.32.38.46.57l.41.58.39.57.19.27.19.24,0,0h0a4.12,4.12,0,0,1,.39.69,2.71,2.71,0,0,1,.14.4,2,2,0,0,1,.07.46,1.59,1.59,0,0,1-.07.5,1.49,1.49,0,0,1-.23.46,1.72,1.72,0,0,1-.34.34,2.26,2.26,0,0,1-.37.23,3,3,0,0,1-.38.15l-.37.1a6,6,0,0,1-.73.12,11,11,0,0,1-1.43,0l.41-.35v.09l0,.08,0,.16c0,.1-.07.2-.12.3A4.15,4.15,0,0,1,81,58a3.89,3.89,0,0,1-.39.52,3.61,3.61,0,0,1-.47.44,3.51,3.51,0,0,1-1.14.59,4.25,4.25,0,0,1-1.24.18h-.29l-.3,0a3.25,3.25,0,0,1-.58-.14,2.85,2.85,0,0,1-1-.6,2.78,2.78,0,0,1-.39-.44,3.12,3.12,0,0,1-.29-.5A4,4,0,0,1,74.54,57l.12,0a4.08,4.08,0,0,0,.41,1,2.68,2.68,0,0,0,.69.78,2.45,2.45,0,0,0,.44.26,2.54,2.54,0,0,0,.48.17,2.83,2.83,0,0,0,.5.07h.52A3.71,3.71,0,0,0,78.75,59a3,3,0,0,0,.47-.23,2.83,2.83,0,0,0,.42-.31,3,3,0,0,0,.65-.81,3.48,3.48,0,0,0,.22-.48c0-.08.06-.16.08-.25l0-.12V56.7h0l.09-.34h.33l.66,0,.65-.08a5.33,5.33,0,0,0,.62-.13,2.63,2.63,0,0,0,.54-.21l.21-.14a.71.71,0,0,0,.14-.15.48.48,0,0,0,.07-.15.58.58,0,0,0,0-.18,1.32,1.32,0,0,0-.14-.46,3.08,3.08,0,0,0-.31-.49l0,0-.25-.3-.22-.29-.41-.56-.41-.54c-.14-.17-.28-.34-.42-.5L81.61,52l-.21-.18-.18-.11-.05,0h-.08l-1.39-.12-1.39-.14-.69-.08-.35,0-.17,0-.18,0a8.72,8.72,0,0,1-1.45-.32,5.52,5.52,0,0,1-.72-.29,4.34,4.34,0,0,1-.69-.42l0,0,0,0h0l0,0-.14-.1-.27-.19L73,49.44c-.38-.23-.77-.45-1.16-.65a14.42,14.42,0,0,0-2.48-1,14.65,14.65,0,0,0-2.62-.5q-.67-.06-1.34-.07t-1.34,0a19,19,0,0,0-2.67.38,22.34,22.34,0,0,0-2.61.73,25.15,25.15,0,0,0-2.52,1l-.61.3-.3.16-.15.08-.08,0-.07,0q-.62.34-1.26.64l-.65.28-.67.25-.35.11-.33.09-.67.18-2.67.74-5.34,1.46.07,0a1.41,1.41,0,0,0-.32.26,1.87,1.87,0,0,0-.25.35,2.52,2.52,0,0,0-.19.4l-.07.21,0,.11v.16a2.45,2.45,0,0,1-.31.56,1.68,1.68,0,0,1-.23.25l-.07.06-.09.06-.06,0a.31.31,0,0,0-.08.14.7.7,0,0,0,0,.21,1.37,1.37,0,0,0,0,.24l0,.12,0,.06v.05l-.21-.14,2.64,0h.16l0,.15v.07l0,.07,0,.14.1.29a4.83,4.83,0,0,0,.26.55,3.75,3.75,0,0,0,.73,1,2.87,2.87,0,0,0,.48.36,2.66,2.66,0,0,0,.54.25,2.8,2.8,0,0,0,.59.12l.3,0h.31a3.57,3.57,0,0,0,.6-.08,2.81,2.81,0,0,0,.57-.19,2.48,2.48,0,0,0,.51-.32,2.59,2.59,0,0,0,.43-.43,3.12,3.12,0,0,0,.33-.52,4.08,4.08,0,0,0,.23-.57,5.68,5.68,0,0,0,.16-.6c0-.1,0-.2.06-.31s0-.21.06-.31Z" transform="translate(-26.18 -21.58)"/><path class="cls-1" d="M92.9,63.45V53H89.06v8.36a2.38,2.38,0,0,1-2.36,2.38H39.18a2.38,2.38,0,0,1-2.36-2.38V32.86a2.38,2.38,0,0,1,2.36-2.38H66.37V28H35.71A2.73,2.73,0,0,0,33,30.76V66.16l-6.81,8.17a4.09,4.09,0,0,0,4.08,4.09H95.62a4.09,4.09,0,0,0,4.08-4.09L92.9,66.16ZM68.39,77.05H57.49a.69.69,0,0,1,0-1.37h10.9a.69.69,0,0,1,0,1.37ZM51.71,74.33l2.08-2.5H72.09l2.08,2.5Zm0,0" transform="translate(-26.18 -21.58)"/><path class="cls-1" d="M165.56,72.93q0,1.37-1.62,1.37H156.8a5.08,5.08,0,0,1-2.62-.86A6.65,6.65,0,0,1,152,71.37l-5.48-8.7a18.73,18.73,0,0,0-4-4.78,7.42,7.42,0,0,0-4.8-1.6h-6.7V71.43a2.72,2.72,0,0,1-.86,2,2.88,2.88,0,0,1-2.07.83h-5.86a2.82,2.82,0,0,1-2.09-.89,2.9,2.9,0,0,1-.87-2.1V32.57a3,3,0,0,1,.87-2.12,2.8,2.8,0,0,1,2.09-.9h5.86a2.75,2.75,0,0,1,2.07.9,3,3,0,0,1,.86,2.12V47.5h6.7a8,8,0,0,0,4.81-1.5,14.73,14.73,0,0,0,3.94-4.83l4.83-8.6a5.07,5.07,0,0,1,4.49-3H163q1.5,0,1.5,1.31a3.8,3.8,0,0,1-.53,1.71l-6.76,12.25a18.09,18.09,0,0,1-3.29,4.43,10.23,10.23,0,0,1-4.75,2.46,8.82,8.82,0,0,1,4.22,2.59A28.75,28.75,0,0,1,157.24,59L165,71.37A3.22,3.22,0,0,1,165.56,72.93Z" transform="translate(-26.18 -21.58)"/><path class="cls-1" d="M166.21,35.5V32.57a2.88,2.88,0,0,1,3-3h39.55a2.88,2.88,0,0,1,3,3V35.5a2.82,2.82,0,0,1-.84,2.1,2.9,2.9,0,0,1-2.12.83h-13.9v33a2.73,2.73,0,0,1-.86,2,2.88,2.88,0,0,1-2.07.83H186a2.88,2.88,0,0,1-2.07-.83,2.72,2.72,0,0,1-.86-2v-33h-13.9a2.9,2.9,0,0,1-2.12-.83A2.82,2.82,0,0,1,166.21,35.5Z" transform="translate(-26.18 -21.58)"/><path class="cls-1" d="M216.76,71.31V32.63a3,3,0,0,1,.84-2.15,2.75,2.75,0,0,1,2.06-.87h12.68a3.64,3.64,0,0,1,2.31.87,4.24,4.24,0,0,1,1.46,2.09l9.19,26.61,9.19-26.61A4.24,4.24,0,0,1,256,30.48a3.64,3.64,0,0,1,2.31-.87H271a2.7,2.7,0,0,1,2,.87,3,3,0,0,1,.83,2.15V71.31a2.9,2.9,0,0,1-.86,2.13,2.82,2.82,0,0,1-2.07.86h-5.61a2.82,2.82,0,0,1-2.07-.86,2.9,2.9,0,0,1-.86-2.13V40.86l-11,30.63a4.44,4.44,0,0,1-1.53,2,3.76,3.76,0,0,1-2.31.83h-4.46a3.69,3.69,0,0,1-2.29-.83,4.7,4.7,0,0,1-1.54-2l-11-30.63V71.31a2.9,2.9,0,0,1-.86,2.13,2.82,2.82,0,0,1-2.07.86h-5.61a3,3,0,0,1-3-3Z" transform="translate(-26.18 -21.58)"/><path d="M77.5,46.14H76.22V41.19l-1.53.47v-1l2.67-1h.14Z" transform="translate(-26.18 -21.58)"/><path d="M93.33,46.14H92V41.19l-1.53.47v-1l2.67-1h.14Z" transform="translate(-26.18 -21.58)"/><path d="M101.31,37.19H100V32.24l-1.53.47v-1l2.67-1h.14Z" transform="translate(-26.18 -21.58)"/><path d="M101.31,28H100V23.1l-1.53.47v-1l2.67-1h.14Z" transform="translate(-26.18 -21.58)"/><path d="M108.89,28h-1.28V23.1l-1.53.47v-1l2.67-1h.14Z" transform="translate(-26.18 -21.58)"/><path d="M101.44,46.14h-1.28V41.19l-1.53.47v-1l2.67-1h.14Z" transform="translate(-26.18 -21.58)"/><path d="M86.36,43.56a3.27,3.27,0,0,1-.55,2,2.22,2.22,0,0,1-3.24,0,3.17,3.17,0,0,1-.57-2V42.44a3.23,3.23,0,0,1,.56-2.05,2.22,2.22,0,0,1,3.23,0,3.17,3.17,0,0,1,.57,2Zm-1.28-1.31a2.36,2.36,0,0,0-.22-1.17.74.74,0,0,0-.69-.37.73.73,0,0,0-.67.35,2.22,2.22,0,0,0-.23,1.09v1.57a2.48,2.48,0,0,0,.22,1.17.73.73,0,0,0,.69.38.72.72,0,0,0,.68-.37,2.43,2.43,0,0,0,.22-1.13Z" transform="translate(-26.18 -21.58)"/><path d="M77.5,28H76.22V23.1l-1.53.47v-1l2.67-1h.14Z" transform="translate(-26.18 -21.58)"/><path d="M86.36,34.52a3.27,3.27,0,0,1-.55,2,2.22,2.22,0,0,1-3.24,0,3.17,3.17,0,0,1-.57-2V33.39a3.23,3.23,0,0,1,.56-2.05,2.22,2.22,0,0,1,3.23,0,3.17,3.17,0,0,1,.57,2Zm-1.28-1.31A2.36,2.36,0,0,0,84.86,32a.74.74,0,0,0-.69-.37.73.73,0,0,0-.67.35,2.22,2.22,0,0,0-.23,1.09v1.57a2.48,2.48,0,0,0,.22,1.17.73.73,0,0,0,.69.38.72.72,0,0,0,.68-.37,2.43,2.43,0,0,0,.22-1.13Z" transform="translate(-26.18 -21.58)"/><path d="M94.56,34.52a3.27,3.27,0,0,1-.55,2,2.22,2.22,0,0,1-3.24,0,3.17,3.17,0,0,1-.57-2V33.39a3.23,3.23,0,0,1,.56-2.05,2.22,2.22,0,0,1,3.23,0,3.17,3.17,0,0,1,.57,2Zm-1.28-1.31A2.36,2.36,0,0,0,93.06,32a.74.74,0,0,0-.69-.37.73.73,0,0,0-.67.35,2.22,2.22,0,0,0-.23,1.09v1.57a2.48,2.48,0,0,0,.22,1.17.73.73,0,0,0,.69.38.72.72,0,0,0,.68-.37,2.43,2.43,0,0,0,.22-1.13Z" transform="translate(-26.18 -21.58)"/><path d="M94.56,25.47a3.27,3.27,0,0,1-.55,2,2.22,2.22,0,0,1-3.24,0,3.17,3.17,0,0,1-.57-2V24.35a3.23,3.23,0,0,1,.56-2.05,2.22,2.22,0,0,1,3.23,0,3.17,3.17,0,0,1,.57,2Zm-1.28-1.31A2.36,2.36,0,0,0,93.06,23a.74.74,0,0,0-.69-.37.73.73,0,0,0-.67.35,2.22,2.22,0,0,0-.23,1.09v1.57a2.48,2.48,0,0,0,.22,1.17.73.73,0,0,0,.69.38.72.72,0,0,0,.68-.37,2.43,2.43,0,0,0,.22-1.13Z" transform="translate(-26.18 -21.58)"/></svg>